<?xml version="1.0" standalone="no"?>
<!DOCTYPE svg PUBLIC "-//W3C//DTD SVG 20010904//EN"
 "http://www.w3.org/TR/2001/REC-SVG-20010904/DTD/svg10.dtd">
<svg version="1.0" xmlns="http://www.w3.org/2000/svg"
 width="1264.000000pt" height="1053.000000pt" viewBox="0 0 1264.000000 1053.000000"
 preserveAspectRatio="xMidYMid meet">

<g transform="translate(0.000000,1053.000000) scale(0.100000,-0.100000)"
fill="#000000" stroke="none">
<path d="M5940 7925 l0 -765 -2055 0 -2055 0 0 -150 0 -150 2205 0 2205 0 0
915 0 915 -150 0 -150 0 0 -765z"/>
<path d="M4864 6241 c-229 -36 -354 -164 -354 -359 1 -195 94 -261 485 -348
144 -31 211 -61 259 -114 34 -38 36 -44 36 -108 0 -93 -34 -148 -117 -188 -54
-27 -66 -29 -178 -29 -68 0 -138 5 -162 13 -106 32 -194 130 -208 233 l-7 49
-75 0 -76 0 6 -67 c12 -121 84 -234 190 -296 164 -97 459 -97 622 -2 58 34
120 102 147 160 35 77 33 200 -5 277 -51 104 -140 157 -347 208 -246 60 -285
71 -328 96 -55 33 -82 76 -82 134 0 50 27 116 56 142 11 10 42 27 69 40 72 32
228 32 300 0 86 -39 137 -104 151 -191 l7 -41 73 0 c40 0 75 4 78 9 3 5 1 34
-5 65 -29 158 -125 260 -281 302 -67 17 -191 25 -254 15z"/>
<path d="M10124 6240 c-220 -32 -385 -178 -461 -405 -24 -72 -27 -95 -27 -230
-1 -130 2 -160 22 -225 91 -289 308 -444 597 -426 166 10 289 66 393 180 105
115 157 270 156 466 0 146 -22 239 -82 355 -110 209 -347 322 -598 285z m204
-144 c143 -38 252 -157 298 -327 23 -85 24 -252 1 -337 -39 -145 -124 -258
-234 -310 -53 -24 -69 -27 -173 -27 -110 0 -119 2 -181 32 -192 95 -288 346
-233 611 38 189 156 324 311 361 58 14 152 12 211 -3z"/>
<path d="M1830 5600 l0 -620 410 0 411 0 -3 68 -3 67 -327 3 -328 2 0 550 0
550 -80 0 -80 0 0 -620z"/>
<path d="M3140 5600 l0 -620 425 0 425 0 0 70 0 70 -345 0 -345 0 0 215 0 215
320 0 320 0 0 65 0 65 -320 0 -320 0 0 200 0 200 345 0 345 0 0 70 0 70 -425
0 -425 0 0 -620z"/>
<path d="M5870 6150 l0 -70 205 0 205 0 0 -550 0 -550 85 0 85 0 0 550 0 550
205 0 205 0 0 70 0 70 -495 0 -495 0 0 -70z"/>
<path d="M7350 5600 l0 -620 80 0 80 0 0 620 0 620 -80 0 -80 0 0 -620z"/>
<path d="M8138 6214 c-5 -4 -8 -284 -8 -621 l0 -615 293 4 c289 3 293 4 371
31 185 65 285 181 333 387 22 94 25 337 4 420 -37 153 -129 272 -253 330 -122
57 -160 62 -458 67 -151 3 -278 2 -282 -3z m554 -145 c117 -25 218 -108 257
-213 29 -78 45 -206 38 -306 -11 -149 -57 -262 -138 -334 -88 -80 -194 -106
-431 -106 l-118 0 0 485 0 485 170 0 c93 0 193 -5 222 -11z"/>
<path d="M1830 2490 l0 -640 4490 0 4490 0 0 640 0 640 -4490 0 -4490 0 0
-640z m7012 250 c50 -14 97 -55 119 -105 28 -61 26 -65 -33 -65 -50 0 -54 3
-69 33 -28 58 -121 67 -175 16 -33 -31 -47 -81 -42 -153 4 -75 32 -119 84
-136 67 -22 154 17 154 70 0 17 -6 20 -50 20 l-50 0 0 45 0 45 105 0 105 0 0
-135 0 -135 -40 0 c-37 0 -40 2 -40 27 l0 26 -22 -21 c-32 -29 -71 -42 -131
-42 -67 1 -122 26 -169 78 -44 48 -62 104 -61 189 2 177 148 289 315 243z
m-4865 -11 c94 -35 120 -161 48 -229 l-25 -24 26 -27 c21 -22 28 -42 34 -101
5 -40 12 -81 16 -91 6 -16 1 -18 -52 -15 -43 2 -59 7 -61 18 -1 8 -5 41 -8 73
-9 84 -26 97 -120 97 l-75 0 0 -95 0 -95 -55 0 -55 0 0 250 0 250 149 0 c82 0
162 -5 178 -11z m931 -36 l-3 -48 -127 -3 -128 -3 0 -49 0 -50 121 0 120 0 -3
-42 -3 -43 -117 -3 -118 -3 0 -59 0 -60 130 0 130 0 0 -45 0 -45 -189 0 -190
0 -1 243 c0 134 3 246 6 250 4 4 90 7 191 7 l184 0 -3 -47z m667 -115 l100
-162 3 163 3 162 52 -3 52 -3 2 -247 2 -248 -58 0 -58 0 -99 160 -99 161 -3
-161 -2 -160 -55 0 -54 0 -1 243 c0 134 3 246 6 250 4 4 30 7 58 7 l51 0 100
-162z m1055 111 c0 -42 -3 -50 -17 -48 -10 1 -44 1 -75 0 l-58 -1 0 -200 0
-200 -55 0 -55 0 0 200 0 199 -72 3 -73 3 -3 48 -3 47 205 0 206 0 0 -51z
m550 -199 l0 -250 -60 0 -61 0 1 244 c1 134 4 247 7 250 4 3 30 6 60 6 l53 0
0 -250z m677 96 c51 -82 97 -154 103 -160 7 -7 10 41 10 152 l0 162 50 0 50 0
0 -250 0 -251 -57 3 -57 3 -94 153 c-52 84 -96 151 -98 149 -2 -2 -4 -71 -5
-155 l-1 -152 -54 0 -54 0 0 250 0 251 57 -3 58 -3 92 -149z"/>
<path d="M3760 2579 l0 -72 81 5 c86 5 106 16 109 58 6 68 -11 80 -111 80
l-79 0 0 -71z"/>
</g>
</svg>
