<?xml version="1.0" encoding="utf-8"?>
<!-- Generator: Adobe Illustrator 24.0.1, SVG Export Plug-In . SVG Version: 6.00 Build 0)  -->
<svg version="1.1" id="Capa_1" xmlns="http://www.w3.org/2000/svg" xmlns:xlink="http://www.w3.org/1999/xlink" x="0px" y="0px"
	 viewBox="0 0 800 800" style="enable-background:new 0 0 800 800;" xml:space="preserve">
<style type="text/css">
	.st0{fill:#003061;}
	.st1{fill:#00A2DC;}
	.st2{fill:#FFFFFF;}
</style>
<g>
	<g>
		<g>
			<g>
				<g>
					<path class="st0" d="M161.3,381.9V443h36v7.7h-45.1v-68.9H161.3z"/>
				</g>
			</g>
			<g>
				<g>
					<path class="st0" d="M271.4,381.9v7.7h-38v21.9h35.4v7.7h-35.4V443h38.2v7.7h-47.3v-68.9H271.4z"/>
				</g>
			</g>
			<g>
				<g>
					<path class="st0" d="M335.8,391.3c-3-2.2-6.9-3.3-11.6-3.3c-1.9,0-3.8,0.2-5.6,0.6c-1.8,0.4-3.5,1-4.9,1.9
						c-1.4,0.9-2.6,2.1-3.4,3.6c-0.9,1.5-1.3,3.4-1.3,5.6c0,2.1,0.6,3.8,1.9,5.2c1.2,1.3,2.9,2.4,5,3.2c2.1,0.8,4.4,1.5,7,2.1
						c2.6,0.5,5.3,1.1,8,1.8c2.7,0.6,5.4,1.4,8,2.3c2.6,0.9,4.9,2,7,3.5c2.1,1.5,3.7,3.3,5,5.6c1.2,2.2,1.9,5.1,1.9,8.5
						c0,3.7-0.8,6.8-2.4,9.4c-1.6,2.6-3.7,4.7-6.2,6.4c-2.5,1.6-5.4,2.8-8.5,3.6c-3.1,0.7-6.3,1.1-9.4,1.1c-3.8,0-7.4-0.5-10.8-1.4
						c-3.4-1-6.4-2.4-9-4.4c-2.6-2-4.6-4.5-6.1-7.5c-1.5-3.1-2.2-6.7-2.2-10.9h8.6c0,2.9,0.6,5.4,1.7,7.5c1.1,2.1,2.6,3.8,4.4,5.2
						c1.8,1.4,3.9,2.3,6.3,3c2.4,0.6,4.9,1,7.4,1c2,0,4.1-0.2,6.2-0.6c2.1-0.4,3.9-1,5.6-2c1.7-0.9,3-2.2,4-3.8
						c1-1.6,1.5-3.7,1.5-6.2c0-2.4-0.6-4.3-1.9-5.8c-1.2-1.5-2.9-2.7-5-3.6c-2.1-0.9-4.4-1.7-7-2.3c-2.6-0.6-5.3-1.2-8-1.8
						c-2.7-0.6-5.4-1.3-8-2.1c-2.6-0.8-4.9-1.9-7-3.2c-2.1-1.3-3.7-3-5-5.1c-1.2-2.1-1.9-4.7-1.9-7.9c0-3.5,0.7-6.5,2.1-9
						c1.4-2.5,3.3-4.6,5.6-6.3c2.3-1.6,5-2.9,7.9-3.7c3-0.8,6-1.2,9.1-1.2c3.5,0,6.7,0.4,9.7,1.3c3,0.8,5.6,2.2,7.9,4
						c2.3,1.8,4,4.1,5.3,6.8c1.3,2.7,2,6,2.1,9.8h-8.6C340.6,397.1,338.8,393.5,335.8,391.3z"/>
				</g>
			</g>
			<g>
				<g>
					<path class="st0" d="M375.3,389.6v-7.7h54.5v7.7h-22.7v61.2H398v-61.2H375.3z"/>
				</g>
			</g>
			<g>
				<g>
					<path class="st0" d="M465.8,381.9v68.9h-9.1v-68.9H465.8z"/>
				</g>
			</g>
			<g>
				<g>
					<path class="st0" d="M523.5,381.9c10.5,0,18.6,2.7,24.2,8.1c5.7,5.4,8.5,13.6,8.5,24.7c0,5.8-0.6,10.9-1.9,15.4
						c-1.3,4.5-3.2,8.2-5.9,11.3c-2.7,3.1-6.1,5.4-10.2,7c-4.1,1.6-9,2.4-14.7,2.4h-23.4v-68.9H523.5z M524.3,443
						c1,0,2.3-0.1,3.8-0.2c1.5-0.2,3.1-0.5,4.9-1.2c1.7-0.6,3.4-1.5,5.1-2.7c1.7-1.2,3.2-2.7,4.5-4.7c1.3-2,2.4-4.5,3.3-7.5
						c0.9-3,1.3-6.6,1.3-10.8c0-4.1-0.4-7.8-1.2-11c-0.8-3.2-2.1-6-3.9-8.3c-1.8-2.3-4.1-4-7-5.2c-2.9-1.2-6.4-1.8-10.6-1.8h-15.3
						V443H524.3z"/>
				</g>
			</g>
			<g>
				<g>
					<path class="st0" d="M584.6,402.8c1.4-4.3,3.4-8.2,6.2-11.5c2.7-3.3,6.1-6,10.2-8c4.1-2,8.8-3,14.2-3c5.4,0,10.1,1,14.2,3
						c4.1,2,7.5,4.7,10.2,8c2.7,3.3,4.8,7.2,6.2,11.5c1.4,4.3,2.1,8.9,2.1,13.6c0,4.7-0.7,9.2-2.1,13.6c-1.4,4.3-3.4,8.2-6.2,11.5
						c-2.7,3.3-6.1,6-10.2,8c-4.1,2-8.8,2.9-14.2,2.9c-5.4,0-10.1-1-14.2-2.9c-4.1-2-7.5-4.6-10.2-8c-2.7-3.3-4.8-7.2-6.2-11.5
						c-1.4-4.3-2.1-8.9-2.1-13.6C582.5,411.6,583.2,407.1,584.6,402.8z M592.9,426.6c0.9,3.4,2.3,6.4,4.2,9.1
						c1.9,2.7,4.4,4.9,7.3,6.5c3,1.6,6.5,2.5,10.7,2.5c4.1,0,7.7-0.8,10.7-2.5c3-1.6,5.4-3.8,7.3-6.5c1.9-2.7,3.3-5.7,4.2-9.1
						c0.9-3.4,1.3-6.8,1.3-10.3c0-3.5-0.4-6.9-1.3-10.3c-0.9-3.4-2.3-6.4-4.2-9.1c-1.9-2.7-4.4-4.9-7.3-6.5c-3-1.6-6.5-2.5-10.7-2.5
						c-4.1,0-7.7,0.8-10.7,2.5c-3,1.6-5.4,3.8-7.3,6.5c-1.9,2.7-3.3,5.7-4.2,9.1c-0.9,3.4-1.3,6.8-1.3,10.3
						C591.6,419.8,592,423.2,592.9,426.6z"/>
				</g>
			</g>
		</g>
	</g>
	<polygon class="st0" points="395.5,346.3 152,346.3 152,329.3 378.8,329.3 378.8,244.3 395.5,244.3 	"/>
	<g>
		<polygon class="st1" points="648,346.3 404.4,346.3 404.4,244.3 421.2,244.3 421.2,329.3 648,329.3 		"/>
	</g>
	<g>
		<g>
			<rect x="152" y="484.6" class="st0" width="496" height="71.1"/>
		</g>
		<path class="st2" d="M267.6,506.2c1.2,0,2.3,0.2,3.3,0.6c1,0.4,1.8,0.9,2.5,1.6c0.7,0.7,1.2,1.5,1.6,2.4c0.4,0.9,0.6,1.9,0.6,3
			c0,1.6-0.3,3-1,4.2c-0.7,1.2-1.8,2.1-3.3,2.7v0.1c0.7,0.2,1.4,0.5,1.8,0.9c0.5,0.4,0.9,0.9,1.2,1.5c0.3,0.6,0.5,1.2,0.7,1.9
			c0.1,0.7,0.2,1.4,0.3,2.1c0,0.4,0.1,1,0.1,1.5c0,0.6,0.1,1.2,0.1,1.8c0.1,0.6,0.2,1.2,0.3,1.8c0.1,0.6,0.4,1,0.6,1.4h-6
			c-0.3-0.9-0.5-1.9-0.6-3.1c-0.1-1.2-0.2-2.4-0.3-3.5c-0.2-1.4-0.6-2.5-1.3-3.2c-0.7-0.7-1.7-1-3.3-1h-6v10.8h-6v-27.6H267.6z
			 M265.4,518.7c1.4,0,2.4-0.3,3.1-0.9c0.7-0.6,1-1.6,1-3c0-1.3-0.3-2.3-1-2.9c-0.7-0.6-1.7-0.9-3.1-0.9h-6.6v7.8H265.4z"/>
		<path class="st2" d="M322,506.2v5.1h-14.4v5.9h13.2v4.7h-13.2v6.8h14.7v5.1h-20.7v-27.6H322z"/>
		<path class="st2" d="M353.4,506.2l11.4,18.5h0.1v-18.5h5.6v27.6h-6l-11.4-18.5H353v18.5h-5.6v-27.6H353.4z"/>
		<path class="st2" d="M394.6,511.3v-5.1H417v5.1h-8.2v22.5h-6v-22.5H394.6z"/>
		<path class="st2" d="M447.2,506.2v27.6h-6v-27.6H447.2z"/>
		<path class="st2" d="M479.5,506.2l11.4,18.5h0.1v-18.5h5.6v27.6h-6l-11.4-18.5h-0.1v18.5h-5.6v-27.6H479.5z"/>
		<path class="st2" d="M539.1,533.6c-1.3,0.6-2.6,0.8-3.9,0.8c-2.1,0-4-0.4-5.6-1.1c-1.7-0.7-3.1-1.7-4.2-3c-1.1-1.3-2-2.8-2.6-4.5
			s-0.9-3.6-0.9-5.6c0-2.1,0.3-4,0.9-5.7c0.6-1.8,1.5-3.3,2.6-4.6c1.1-1.3,2.6-2.3,4.2-3.1c1.7-0.7,3.6-1.1,5.6-1.1
			c1.4,0,2.8,0.2,4.1,0.6c1.3,0.4,2.5,1.1,3.6,1.9c1.1,0.8,1.9,1.8,2.6,3.1c0.7,1.2,1.1,2.6,1.3,4.2H541c-0.4-1.5-1-2.7-2.1-3.5
			c-1-0.8-2.3-1.2-3.7-1.2c-1.4,0-2.5,0.3-3.4,0.8c-0.9,0.5-1.7,1.2-2.3,2.1c-0.6,0.9-1,1.9-1.3,3c-0.3,1.1-0.4,2.3-0.4,3.5
			c0,1.2,0.1,2.3,0.4,3.4c0.3,1.1,0.7,2.1,1.3,3c0.6,0.9,1.4,1.6,2.3,2.1c0.9,0.5,2.1,0.8,3.4,0.8c2,0,3.5-0.5,4.6-1.5
			c1.1-1,1.7-2.5,1.9-4.4h-6v-4.5h11.5v14.9h-3.8l-0.6-3.1C541.6,532.1,540.4,533.1,539.1,533.6z"/>
	</g>
</g>
</svg>
