<?xml version="1.0" encoding="UTF-8"?>
<!DOCTYPE svg PUBLIC "-//W3C//DTD SVG 1.1//EN" "http://www.w3.org/Graphics/SVG/1.1/DTD/svg11.dtd">
<!-- Creator: CorelDRAW 2019 (64-Bit) -->
<svg xmlns="http://www.w3.org/2000/svg" xml:space="preserve" width="100px" height="63px" version="1.1" style="shape-rendering:geometricPrecision; text-rendering:geometricPrecision; image-rendering:optimizeQuality; fill-rule:evenodd; clip-rule:evenodd"
viewBox="0 0 92.51 58.08"
 xmlns:xlink="http://www.w3.org/1999/xlink">
 <defs>
  <style type="text/css">
   <![CDATA[
    .fil0 {fill:#003061}
    .fil1 {fill:#00A2DC}
    .fil2 {fill:white}
   ]]>
  </style>
 </defs>
 <g id="Capa_x0020_1">
  <metadata id="CorelCorpID_0Corel-Layer"/>
  <g id="_2558110332464">
   <g>
    <g>
     <g>
      <g>
       <polygon class="fil0" points="1.73,25.66 1.73,37.06 8.45,37.06 8.45,38.5 0.04,38.5 0.04,25.65 1.73,25.65 "/>
      </g>
     </g>
     <g>
      <g>
       <polygon class="fil0" points="22.27,25.66 22.27,27.1 15.18,27.1 15.18,31.18 21.78,31.18 21.78,32.62 15.18,32.62 15.18,37.06 22.31,37.06 22.31,38.5 13.48,38.5 13.48,25.65 22.27,25.65 "/>
      </g>
     </g>
     <g>
      <g>
       <path class="fil0" d="M34.28 27.42c-0.56,-0.41 -1.29,-0.62 -2.16,-0.62 -0.36,0 -0.71,0.04 -1.05,0.11 -0.33,0.08 -0.65,0.19 -0.91,0.36 -0.26,0.17 -0.49,0.39 -0.64,0.67 -0.16,0.28 -0.24,0.63 -0.24,1.04 0,0.4 0.11,0.71 0.36,0.97 0.22,0.25 0.54,0.45 0.93,0.6 0.39,0.15 0.82,0.28 1.3,0.39 0.49,0.1 0.99,0.21 1.5,0.34 0.5,0.11 1,0.26 1.49,0.43 0.48,0.16 0.91,0.37 1.3,0.65 0.4,0.28 0.69,0.62 0.94,1.04 0.22,0.41 0.35,0.96 0.35,1.59 0,0.69 -0.15,1.27 -0.45,1.75 -0.29,0.49 -0.69,0.88 -1.15,1.2 -0.47,0.29 -1.01,0.52 -1.59,0.67 -0.58,0.13 -1.17,0.2 -1.75,0.2 -0.71,0 -1.38,-0.09 -2.02,-0.26 -0.63,-0.18 -1.19,-0.45 -1.67,-0.82 -0.49,-0.37 -0.86,-0.84 -1.14,-1.4 -0.28,-0.58 -0.41,-1.25 -0.41,-2.03l1.6 0c0,0.54 0.11,1.01 0.32,1.4 0.2,0.39 0.48,0.71 0.82,0.97 0.34,0.26 0.73,0.43 1.17,0.56 0.45,0.11 0.92,0.18 1.38,0.18 0.38,0 0.77,-0.03 1.16,-0.11 0.39,-0.07 0.73,-0.18 1.05,-0.37 0.31,-0.17 0.56,-0.41 0.74,-0.71 0.19,-0.3 0.28,-0.69 0.28,-1.16 0,-0.44 -0.11,-0.8 -0.35,-1.08 -0.23,-0.28 -0.54,-0.5 -0.94,-0.67 -0.39,-0.17 -0.82,-0.32 -1.3,-0.43 -0.49,-0.11 -0.99,-0.22 -1.49,-0.33 -0.51,-0.12 -1.01,-0.25 -1.5,-0.4 -0.48,-0.14 -0.91,-0.35 -1.3,-0.59 -0.39,-0.24 -0.69,-0.56 -0.93,-0.95 -0.23,-0.4 -0.36,-0.88 -0.36,-1.48 0,-0.65 0.13,-1.21 0.39,-1.68 0.27,-0.46 0.62,-0.85 1.05,-1.17 0.43,-0.3 0.93,-0.54 1.47,-0.69 0.56,-0.15 1.12,-0.22 1.7,-0.22 0.65,0 1.25,0.07 1.81,0.24 0.56,0.15 1.04,0.41 1.47,0.74 0.43,0.34 0.75,0.77 0.99,1.27 0.24,0.51 0.37,1.12 0.39,1.83l-1.6 0c-0.11,-0.95 -0.45,-1.62 -1.01,-2.03z"/>
      </g>
     </g>
     <g>
      <g>
       <polygon class="fil0" points="41.65,27.1 41.65,25.66 51.81,25.66 51.81,27.1 47.58,27.1 47.58,38.51 45.88,38.51 45.88,27.1 "/>
      </g>
     </g>
     <g>
      <g>
       <polygon class="fil0" points="58.53,25.66 58.53,38.51 56.83,38.51 56.83,25.66 "/>
      </g>
     </g>
     <g>
      <g>
       <path class="fil0" d="M69.29 25.66c1.96,0 3.47,0.51 4.51,1.51 1.07,1.01 1.59,2.54 1.59,4.61 0,1.08 -0.11,2.03 -0.36,2.87 -0.24,0.84 -0.59,1.53 -1.1,2.11 -0.5,0.58 -1.14,1.01 -1.9,1.31 -0.76,0.3 -1.68,0.44 -2.74,0.44l-4.37 0 0 -12.85 4.37 0zm0.15 11.4c0.18,0 0.43,-0.02 0.71,-0.04 0.28,-0.03 0.57,-0.09 0.91,-0.22 0.32,-0.11 0.63,-0.28 0.95,-0.51 0.32,-0.22 0.6,-0.5 0.84,-0.87 0.24,-0.37 0.45,-0.84 0.62,-1.4 0.16,-0.56 0.24,-1.23 0.24,-2.01 0,-0.77 -0.08,-1.46 -0.22,-2.06 -0.15,-0.59 -0.4,-1.12 -0.73,-1.54 -0.34,-0.43 -0.77,-0.75 -1.31,-0.97 -0.54,-0.23 -1.19,-0.34 -1.97,-0.34l-2.86 0 0 9.96 2.82 0z"/>
      </g>
     </g>
     <g>
      <g>
       <path class="fil0" d="M80.68 29.56c0.27,-0.8 0.64,-1.53 1.16,-2.14 0.5,-0.62 1.14,-1.12 1.9,-1.5 0.77,-0.37 1.64,-0.55 2.65,-0.55 1.01,0 1.89,0.18 2.65,0.55 0.76,0.38 1.4,0.88 1.9,1.5 0.51,0.61 0.9,1.34 1.16,2.14 0.26,0.8 0.39,1.66 0.39,2.54 0,0.88 -0.13,1.71 -0.39,2.54 -0.26,0.8 -0.64,1.52 -1.16,2.14 -0.5,0.62 -1.14,1.12 -1.9,1.49 -0.76,0.38 -1.64,0.54 -2.65,0.54 -1.01,0 -1.88,-0.18 -2.65,-0.54 -0.76,-0.37 -1.4,-0.86 -1.9,-1.49 -0.5,-0.62 -0.89,-1.34 -1.16,-2.14 -0.26,-0.81 -0.39,-1.66 -0.39,-2.54 0,-0.9 0.13,-1.74 0.39,-2.54zm1.55 4.44c0.17,0.64 0.43,1.19 0.79,1.7 0.35,0.5 0.82,0.91 1.36,1.21 0.56,0.3 1.21,0.47 1.99,0.47 0.77,0 1.44,-0.15 2,-0.47 0.56,-0.3 1.01,-0.71 1.36,-1.21 0.35,-0.51 0.62,-1.06 0.78,-1.7 0.17,-0.63 0.25,-1.27 0.25,-1.92 0,-0.65 -0.08,-1.29 -0.25,-1.92 -0.16,-0.64 -0.43,-1.19 -0.78,-1.7 -0.35,-0.5 -0.82,-0.91 -1.36,-1.21 -0.56,-0.3 -1.21,-0.47 -2,-0.47 -0.76,0 -1.43,0.15 -1.99,0.47 -0.56,0.3 -1.01,0.71 -1.36,1.21 -0.36,0.51 -0.62,1.06 -0.79,1.7 -0.17,0.63 -0.24,1.27 -0.24,1.92 0,0.65 0.07,1.29 0.24,1.92z"/>
      </g>
     </g>
    </g>
   </g>
   <polygon class="fil0" points="45.42,19.02 0,19.02 0,15.85 42.3,15.85 42.3,0 45.42,0 "/>
   <g>
    <polygon class="fil1" points="92.51,19.02 47.08,19.02 47.08,0 50.21,0 50.21,15.85 92.51,15.85 "/>
   </g>
   <g>
    <g>
     <rect class="fil0" y="44.82" width="92.51" height="13.26"/>
    </g>
    <path class="fil2" d="M21.56 48.85c0.22,0 0.43,0.03 0.62,0.11 0.18,0.07 0.33,0.17 0.46,0.3 0.13,0.13 0.23,0.28 0.3,0.45 0.08,0.16 0.11,0.35 0.11,0.55 0,0.3 -0.05,0.56 -0.18,0.79 -0.13,0.22 -0.34,0.39 -0.62,0.5l0 0.02c0.13,0.04 0.26,0.09 0.34,0.17 0.09,0.07 0.16,0.17 0.22,0.28 0.06,0.11 0.09,0.22 0.13,0.35 0.02,0.13 0.04,0.26 0.06,0.39 0,0.08 0.02,0.19 0.02,0.28 0,0.12 0.01,0.23 0.01,0.34 0.02,0.11 0.04,0.22 0.06,0.34 0.02,0.11 0.07,0.18 0.11,0.26l-1.12 0c-0.05,-0.17 -0.09,-0.36 -0.11,-0.58 -0.02,-0.23 -0.04,-0.45 -0.06,-0.65 -0.03,-0.27 -0.11,-0.47 -0.24,-0.6 -0.13,-0.13 -0.31,-0.19 -0.61,-0.19l-1.12 0 0 2.02 -1.12 0 0 -5.15 2.74 0 0 0.02zm-0.41 2.33c0.26,0 0.45,-0.06 0.58,-0.17 0.13,-0.11 0.19,-0.3 0.19,-0.56 0,-0.24 -0.06,-0.43 -0.19,-0.54 -0.13,-0.11 -0.32,-0.17 -0.58,-0.17l-1.23 0 0 1.46 1.23 0 0 -0.02z"/>
    <polygon class="fil2" points="31.71,48.85 31.71,49.8 29.02,49.8 29.02,50.9 31.48,50.9 31.48,51.78 29.02,51.78 29.02,53.04 31.76,53.04 31.76,53.99 27.9,53.99 27.9,48.85 "/>
    <polygon class="fil2" points="37.56,48.85 39.69,52.3 39.71,52.3 39.71,48.85 40.75,48.85 40.75,53.99 39.63,53.99 37.51,50.54 37.49,50.54 37.49,53.99 36.44,53.99 36.44,48.85 "/>
    <polygon class="fil2" points="45.25,49.8 45.25,48.85 49.43,48.85 49.43,49.8 47.9,49.8 47.9,53.99 46.78,53.99 46.78,49.8 45.25,49.8 "/>
    <polygon class="fil2" points="55.06,48.85 55.06,53.99 53.94,53.99 53.94,48.85 "/>
    <polygon class="fil2" points="61.08,48.85 63.21,52.3 63.23,52.3 63.23,48.85 64.27,48.85 64.27,53.99 63.15,53.99 61.03,50.54 61.01,50.54 61.01,53.99 59.96,53.99 59.96,48.85 "/>
    <path class="fil2" d="M72.2 53.96c-0.24,0.11 -0.49,0.15 -0.73,0.15 -0.39,0 -0.75,-0.08 -1.04,-0.21 -0.32,-0.13 -0.58,-0.32 -0.79,-0.56 -0.2,-0.24 -0.37,-0.52 -0.48,-0.84 -0.11,-0.31 -0.17,-0.67 -0.17,-1.04 0,-0.39 0.06,-0.75 0.17,-1.06 0.11,-0.34 0.28,-0.62 0.48,-0.86 0.21,-0.25 0.49,-0.43 0.79,-0.58 0.31,-0.13 0.67,-0.21 1.04,-0.21 0.26,0 0.52,0.04 0.77,0.12 0.24,0.07 0.46,0.2 0.67,0.35 0.2,0.15 0.35,0.34 0.48,0.58 0.13,0.22 0.21,0.48 0.24,0.78l-1.08 0c-0.07,-0.28 -0.18,-0.5 -0.39,-0.65 -0.19,-0.15 -0.43,-0.23 -0.69,-0.23 -0.26,0 -0.47,0.06 -0.63,0.15 -0.17,0.1 -0.32,0.23 -0.43,0.4 -0.11,0.16 -0.19,0.35 -0.24,0.56 -0.06,0.2 -0.08,0.42 -0.08,0.65 0,0.22 0.02,0.43 0.08,0.63 0.05,0.21 0.13,0.39 0.24,0.56 0.11,0.17 0.26,0.3 0.43,0.39 0.16,0.1 0.39,0.15 0.63,0.15 0.37,0 0.65,-0.09 0.86,-0.28 0.2,-0.18 0.32,-0.46 0.35,-0.82l-1.12 0 0 -0.84 2.15 0 0 2.78 -0.71 0 -0.11 -0.58c-0.23,0.23 -0.45,0.41 -0.69,0.51z"/>
   </g>
  </g>
 </g>
</svg>
