<svg xmlns="http://www.w3.org/2000/svg" xmlns:xlink="http://www.w3.org/1999/xlink" version="1.1" width="800pt" height="800pt" viewBox="0 0 800 800">
<defs>
<clipPath id="clip_0">
<path transform="matrix(1,0,0,-1,0,800)" d="M0 800H800V0H0Z"/>
</clipPath>
</defs>
<g id="layer_1" data-name="Capa 1">
<g clip-path="url(#clip_0)">
<path transform="matrix(1,0,0,-1,0,800)" d="M473.46 438.391H494.813V357.177H473.46ZM471.272 463.109C471.272 470.171 477.159 475.889 484.052 475.889 491.114 475.889 496.831 470.171 496.831 463.109 496.831 456.047 491.114 450.33 484.052 450.33 477.159 450.33 471.272 456.047 471.272 463.109"/>
<path transform="matrix(1,0,0,-1,570.8158,393.7245)" d="M0 0C0 11.266-5.885 15.133-14.965 15.133-23.371 15.133-29.929 10.426-33.461 5.549V-49.098H-54.815V32.116H-33.461V21.523C-28.248 27.744-18.327 34.134-5.044 34.134 12.779 34.134 21.356 24.045 21.356 8.239V-49.098H0Z"/>
<path transform="matrix(1,0,0,-1,669.0173,387.8387)" d="M0 0C-3.53 5.381-11.265 9.247-18.327 9.247-30.433 9.247-38.842 .841-38.842-13.116-38.842-27.072-30.433-35.479-18.327-35.479-11.265-35.479-3.53-31.443 0-26.231ZM-47.753-60.365C-41.194-67.595-32.621-70.454-22.363-70.454-12.106-70.454 0-65.914 0-49.94V-41.701C-6.388-49.772-15.134-54.48-25.052-54.48-45.4-54.48-60.869-40.187-60.869-13.116-60.869 13.452-45.567 28.248-25.052 28.248-15.301 28.248-6.558 24.045 0 15.805V26.23H21.523V-49.435C21.523-80.375-2.355-87.94-22.363-87.94-36.32-87.94-47.249-84.746-57.336-75.835Z"/>
<path transform="matrix(1,0,0,-1,172.6317,351.183)" d="M0 0H-25.055V-30.939H0C9.584-30.939 16.816-24.885 16.816-15.47 16.816-6.053 9.584 0 0 0M-7.566-51.453H-25.055V-91.64H-48.93V20.514H3.532C26.903 20.514 41.197 5.212 41.197-15.638 41.197-35.479 28.752-46.072 16.646-48.931L41.868-91.64H14.461Z"/>
<path transform="matrix(1,0,0,-1,243.0892,394.5651)" d="M0 0H40.02C39.516 7.735 34.135 17.992 20.011 17.992 6.725 17.992 1.01 8.071 0 0M20.011 34.974C44.223 34.974 60.702 16.814 60.702-9.752V-14.461H.337C1.681-24.717 9.921-33.293 23.71-33.293 31.276-33.293 40.187-30.266 45.4-25.222L54.817-39.009C46.578-46.576 33.965-50.276 21.356-50.276-3.363-50.276-22.027-33.629-22.027-7.566-22.027 15.974-4.707 34.974 20.011 34.974"/>
<path transform="matrix(1,0,0,-1,374.0786,393.7245)" d="M0 0C0 11.266-5.885 15.133-14.965 15.133-23.371 15.133-29.929 10.426-33.461 5.549V-49.098H-54.815V32.116H-33.461V21.523C-28.248 27.744-18.327 34.134-5.044 34.134 12.779 34.134 21.356 24.045 21.356 8.239V-49.098H0Z"/>
<path transform="matrix(1,0,0,-1,420.8281,422.6447)" d="M0 0V42.372H-13.453V61.036H0V83.232H21.523V61.036H34.377V42.372H21.523V5.716C21.523 .672 24.212-3.195 28.921-3.195 32.114-3.195 35.143-2.018 36.318-.842L40.858-16.984C37.665-19.841 31.947-22.196 23.034-22.196 8.07-22.196 0-14.461 0 0"/>
<path transform="matrix(1,0,0,-1,719.5521,411.2134)" d="M0 0C9.088 0 16.73-7.642 16.73-16.73 16.73-25.817 9.088-33.459 0-33.459-9.088-33.459-16.729-25.817-16.729-16.73-16.729-7.642-9.088 0 0 0" fill="#878889"/>
<path transform="matrix(1,0,0,-1,288.5099,622.5987)" d="M0 0C-18.951 0-38.111 2.398-57.116 7.249-115.579 22.17-164.272 58.193-194.227 108.68-224.184 159.168-232.464 219.17-217.543 277.633-202.622 336.095-166.599 384.788-116.11 414.745-55.451 450.74 20.523 455.091 87.109 426.383 130.703 407.588 166.265 376.551 189.953 336.626 191.475 334.061 190.629 330.746 188.063 329.224 185.496 327.701 182.183 328.549 180.663 331.113 158.145 369.063 124.318 398.576 82.833 416.462 19.41 443.806-52.898 439.688-110.598 405.453-158.604 376.97-192.867 330.627-207.075 274.961-221.283 219.294-213.421 162.2-184.937 114.193-156.453 66.187-110.11 31.925-54.445 17.717 1.224 3.509 58.317 11.371 106.324 39.853 146.778 63.856 178.44 101.942 195.472 147.094 196.528 149.886 199.654 151.294 202.432 150.241 205.224 149.188 206.633 146.072 205.58 143.28 187.684 95.843 154.392 55.812 111.835 30.562 77.76 10.344 39.345 0 0 0" fill="#878889"/>
</g>
</g>
</svg>
